<svg xmlns="http://www.w3.org/2000/svg" width="48.076" height="12.597" viewBox="0 0 48.076 12.597">
  <path id="Path_2715" data-name="Path 2715" d="M-20.468.816a.354.354,0,0,1-.2-.034q-.561-.51-2.091-5.117a24.772,24.772,0,0,1-1.53-6.324q0-.034.238-.136a3.193,3.193,0,0,1,1.3-.323q.587,0,.587.051a38.212,38.212,0,0,0,1.011,4.4,29.977,29.977,0,0,0,1.624,4.947q.153.306.306.153a.252.252,0,0,0,.068-.119A26.393,26.393,0,0,0-17.841-5.21a14.915,14.915,0,0,0,.858-4.378q0-.2-.382-.442a1.7,1.7,0,0,0-.688-.272.579.579,0,0,1-.017-.187,2.209,2.209,0,0,1,.085-.485.873.873,0,0,1,.153-.382,11.883,11.883,0,0,1,3.128-.425q.255.034.255.068a18.516,18.516,0,0,1-.79,4.378q-.79,2.915-1.623,5.2A12.251,12.251,0,0,1-17.952.408,5.619,5.619,0,0,1-20.468.816ZM-6.562-3.536a4.249,4.249,0,0,1-.977,2.8A3.261,3.261,0,0,1-10.191.442,3.388,3.388,0,0,1-12.818-.6a3.828,3.828,0,0,1-.952-2.694A4.218,4.218,0,0,1-12.589-6.23,4.121,4.121,0,0,1-9.4-7.514a2.762,2.762,0,0,1,.884.1.5.5,0,0,1,.068.323,3.434,3.434,0,0,1-.051.561,1.214,1.214,0,0,1,.655.3,3.8,3.8,0,0,1,.654.6,2.687,2.687,0,0,1,.442.859A3.828,3.828,0,0,1-6.562-3.536Zm-2.482-1.19a1.4,1.4,0,0,0-.765-.255h-.136a.774.774,0,0,1-.034-.289A1.746,1.746,0,0,1-9.928-5.7a1.788,1.788,0,0,0-1.3.629,2.426,2.426,0,0,0-.6,1.751,1.962,1.962,0,0,0,.85,1.836,1.665,1.665,0,0,0,.892.2A1.473,1.473,0,0,0-9.018-1.8a2.189,2.189,0,0,0,.5-1.564A1.48,1.48,0,0,0-9.044-4.726Zm7.769-.68q0-.493-.527-.493a1.51,1.51,0,0,0-1.224.714,2.811,2.811,0,0,0-.527,1.717q0,.238.068.238a2.422,2.422,0,0,0,1.411-.705A1.955,1.955,0,0,0-1.275-5.406ZM.2,0A4.441,4.441,0,0,1-2.057.391a3.294,3.294,0,0,1-2.584-1,3.856,3.856,0,0,1-.9-2.678A4.27,4.27,0,0,1-4.463-6.2,3.82,3.82,0,0,1-1.428-7.429,2.7,2.7,0,0,1,.043-7,1.621,1.621,0,0,1,.714-5.516a3.16,3.16,0,0,1-.926,2.1A5.812,5.812,0,0,1-2.737-1.836q0,.2.417.332a2.806,2.806,0,0,0,.825.128,3.886,3.886,0,0,0,2.04-.459.069.069,0,0,1,.051-.017q.034,0,.034.323A2.433,2.433,0,0,1,.2,0ZM6.239-7.293,6.2-9.809a5.028,5.028,0,0,1,.051-1.105,2.124,2.124,0,0,1,.671-.4,2.313,2.313,0,0,1,.893-.2q.425,0,.425.068-.136,2.822-.136,6a37.275,37.275,0,0,0,.1,3.791,2.289,2.289,0,0,0,.561,1.36q0,.17-.705.535a2.725,2.725,0,0,1-1.2.366q-.051,0-.153-.136A2.22,2.22,0,0,1,6.324-.68q0-.051-.034-.051L6.239-.7A2.424,2.424,0,0,1,4.114.323a2.119,2.119,0,0,1-1.8-.9A3.33,3.33,0,0,1,1.649-2.6a4.78,4.78,0,0,1,1.19-3.273A4.486,4.486,0,0,1,6.239-7.293Zm.034,1.785q0-.034-.187-.034H6.018a2.17,2.17,0,0,0-1.709.7,2.56,2.56,0,0,0-.62,1.768,1.677,1.677,0,0,0,.3,1.028,1.051,1.051,0,0,0,.9.4,1.127,1.127,0,0,0,.969-.527,1.654,1.654,0,0,0,.365-.833Q6.222-4.9,6.273-5.508Zm7.871.1q0-.493-.527-.493a1.51,1.51,0,0,0-1.224.714,2.811,2.811,0,0,0-.527,1.717q0,.238.068.238a2.422,2.422,0,0,0,1.411-.705A1.955,1.955,0,0,0,14.144-5.406ZM15.623,0a4.441,4.441,0,0,1-2.261.391,3.294,3.294,0,0,1-2.584-1,3.856,3.856,0,0,1-.9-2.678A4.27,4.27,0,0,1,10.957-6.2a3.82,3.82,0,0,1,3.035-1.233A2.7,2.7,0,0,1,15.462-7a1.621,1.621,0,0,1,.672,1.488,3.16,3.16,0,0,1-.927,2.1,5.812,5.812,0,0,1-2.525,1.581q0,.2.417.332a2.806,2.806,0,0,0,.824.128,3.886,3.886,0,0,0,2.04-.459.069.069,0,0,1,.051-.017q.034,0,.034.323A2.433,2.433,0,0,1,15.623,0Zm3.842-3.825.017.629V-1.9a10.719,10.719,0,0,1-.068,1.887,1.555,1.555,0,0,1-.765.34,4.353,4.353,0,0,1-.892.119q-.348,0-.348-.051a18.471,18.471,0,0,0,.119-2.516L17.476-5.95a3.451,3.451,0,0,1,.085-1.139,1.61,1.61,0,0,1,.646-.332,2.868,2.868,0,0,1,.858-.144q.4,0,.4.085a6.573,6.573,0,0,0-.051.816q0,.408.051.408l.051-.034a2.928,2.928,0,0,1,.255-.3,3.219,3.219,0,0,1,.722-.476,2.228,2.228,0,0,1,1.054-.3,1.848,1.848,0,0,1,.85.178,1.869,1.869,0,0,1,.569.434,2.19,2.19,0,0,1,.382.731,7.588,7.588,0,0,1,.247.884,8.787,8.787,0,0,1,.136,1.088q.051.935.051,2.38L23.732.323q0,.119-.561.23a4.906,4.906,0,0,1-.9.11L21.709.578a26.869,26.869,0,0,0,.17-2.966,9.26,9.26,0,0,0-.187-2.159q-.187-.722-.748-.722a1.328,1.328,0,0,0-.91.306,1.466,1.466,0,0,0-.451.612l-.119.289Z" transform="translate(24.293 11.781)" fill="#fdfdfd"/>
</svg>
